<svg version="1.2" xmlns="http://www.w3.org/2000/svg" viewBox="0 0 252 91" width="500" height="240">
	<title>MyLogo-svg</title>
	<style>
		.s0 { fill: #000000 } 
		@media (prefers-color-scheme: dark) {
			.s0 {
				fill: #ffffff;
			}
		}
	</style>
	<g id="Layer">
		<path id="Layer" fill-rule="evenodd" class="s0" d="m100 10.5c-2.2 6.7-17.8 26.7-34.7 44.5l-8.1 8.6 27.6-0.1c30.9 0 53.2 1.1 53.2 2.7 0 0.7-2.7 0.9-8.2 0.4-16.4-1.3-48.6-1.9-62.1-1.1l-13.8 0.7-5.2 4.5c-11 9.5-23 16.4-31 17.9-4.6 0.8-12.2-1.8-13.8-4.8-2.4-4.4 3.6-9.7 15.7-13.8 6.7-2.3 21.8-5 28.2-5 3.8 0 4.9-0.6 9.9-5.3 16.4-15.5 40.3-46.2 40.3-51.9 0-9.2-48.4 15.9-58.7 30.5-2.5 3.5-2.6 3.9-1 5.4 1.7 1.8 7.9 2.1 14 0.7 1.5-0.3 2.7-0.1 2.7 0.4 0 2-14.7 3-18.1 1.2-4.9-2.7-0.2-10.4 11.8-19.4 10.3-7.7 24.7-15.8 35-19.6 13.1-4.9 18.7-3.7 16.3 3.5zm-50.7 55.6c-22.7 3.3-29.7 4.9-36.7 8.7-2.7 1.5-5.3 3.7-5.9 5-1 2.1-0.8 2.8 1.6 4.8 3.4 2.9 7 3 14.2 0.5 6.4-2.3 27.5-16.5 27.5-18.5 0-0.3-0.3-0.6-0.7-0.5z"/>
		<path id="Layer" class="s0" d="m108.5 14c-4.6 1.4-8.7 6.2-8.8 10.3-0.1 2.8 0.8 4.6 4.4 8.9 5.4 6.3 6.9 8.9 6.9 12 0 3.7-3.6 8.5-7.9 10.8-7.3 3.7-20.7 2.2-22.5-2.5-1.2-3.3-0.5-6.6 1.9-9 2-2.1 3.4-2.5 8.2-2.5 3.2 0 6.4 0.4 7.1 0.9 2.2 1.4 1 5.4-2.1 6.9-1.5 0.7-2.5 1.8-2.1 2.3 0.7 1.2 6.2-1.8 7.7-4.2 2.6-4.1-1.8-9.5-8.6-10.6-4.4-0.7-11.9 2.5-14.3 6.3-2.8 4.2-2.4 10.1 0.8 12.9 8.3 7.1 29.3 4.1 35.3-5.1 4.3-6.7 2.8-12.9-5.2-21.5-3.7-4-4.4-5.3-4.1-8.1 0.4-4.3 5.9-7.5 10.3-5.8 2.3 0.9 2.6 1.4 2 4-0.8 3.5 1.5 5.1 4.1 2.9 5.2-4.3-5-11.3-13.1-8.9z"/>
		<path id="Layer" class="s0" d="m184.2 29.7c-1.2 3.2-2.6 7-3.2 8.5-0.6 1.8-1.7 2.8-3 2.8-1.1 0-2 0.4-2 1 0 0.5 0.9 1 1.9 1 1.8 0 1.8 0.2 0.4 5-1.8 6.3-1.4 11.4 1 11.8 2.2 0.4 9.1-6.3 8.1-7.9-0.4-0.7-1.5-0.1-2.9 1.7-3.3 4.1-3.9 2.5-1.9-4.5 1.5-5.7 1.9-6.1 4.5-6.1 1.6 0 2.9-0.5 2.9-1 0-0.6-1.1-1-2.5-1-1.4 0-2.5-0.1-2.5-0.3 0-0.1 1.4-3.8 3-8.2 1.6-4.4 3-8.1 3-8.3 0-0.1-1-0.2-2.3-0.2-1.8 0-2.7 1.1-4.5 5.7z"/>
		<path id="Layer" fill-rule="evenodd" class="s0" d="m134.7 42.2c2 1.8 2.3 1.9 2.3 0.5 0-1.1 0.8-1.7 2.5-1.7 3 0 2.9-0.4 0.8 7.6-1.9 7-1.2 9.2 1.7 5.4 1-1.4 2.2-2.1 2.6-1.7 1.2 1.1-3 6.1-6 7.2-2.1 0.7-2.9 0.6-3.6-0.5-0.5-0.8-0.6-1.8-0.4-2.2 0.9-1.5-0.7-0.8-2.8 1.2-2.6 2.4-6.5 2.6-9.6 0.4-1.7-1.2-2.2-2.5-2.2-6 0-5.6 1.2-7.9 5.3-10.4 4.1-2.6 6.5-2.5 9.4 0.2zm-5.3 1.6c-3.8 2.6-5.7 9.5-3.2 12 4.4 4.4 10.8-4.4 8.2-11.2-0.6-1.7-3.2-2.1-5-0.8z"/>
		<path id="Layer" class="s0" d="m149.5 43.3c-3.4 3.4-4.4 5.7-2.6 5.7 0.6 0 1.7-1 2.5-2.2 0.9-1.2 1.9-1.9 2.3-1.5 0.5 0.6-1.3 7.9-3.4 13.4-0.3 0.8 0.4 1.3 1.8 1.3 1.8 0 3-1.1 4.7-4.3 3.1-5.8 8-11.7 9.8-11.7 1.8 0 1.8 1.7-0.1 7-1.9 5.4-1.9 7.9 0.1 8.7 2 0.7 6.3-1.6 8.2-4.5 2.1-3.2 0.5-4.2-1.8-1.2-2.7 3.6-3.5 1.8-1.6-3.6 2-5.9 2-7.8 0.1-9.4-2.2-1.8-6.8 0.4-11.1 5.4-2 2.2-3.3 3.2-2.8 2.1 0.4-1.1 0.8-3.3 0.8-5 0.1-4.3-2.7-4.4-6.9-0.2z"/>
		<path id="Layer" fill-rule="evenodd" class="s0" d="m207 41.1c3.6 1.3 6 5.6 5.2 9.5-1.1 5.8-9.4 10.6-15.6 9-8.4-2.1-8.4-13 0.1-17.5 4.5-2.4 5.9-2.5 10.3-1zm-9.5 4.9c-2.9 5.6-1.3 12 3 12 4.7 0 8.1-8.9 5.1-13.5-2.4-3.7-5.7-3.1-8.1 1.5z"/>
		<path id="Layer" class="s0" d="m220.8 41.5c-5.5 3.1-4.7 7.6 1.8 10.1 6.8 2.6 5.7 6.4-1.7 6.4-2.6 0-2.9-0.3-2.4-2.1 0.8-2.5-1.3-4.3-3.2-2.7-5.4 4.5 6.4 9.1 13.7 5.3 5.9-3.1 4.7-8.3-2.5-11-4.9-1.9-5.8-3.9-2.2-4.9 3.9-1 4.9-0.7 4.2 1.4-0.9 2.7 2.1 3.8 4.3 1.6 1.5-1.5 1.5-1.7 0.1-3.2-2.3-2.2-8.8-2.7-12.1-0.9z"/>
		<path id="Layer" fill-rule="evenodd" class="s0" d="m238.8 54c0.1 0 0.8 1.4 1.4 3 0.6 1.9 2.4 3.8 4.7 5l3.6 1.9-3.4 1.2c-2.3 0.8-3.8 2.2-4.8 4.8l-1.5 3.6-1.5-3.8c-0.8-2-1.9-3.7-2.3-3.7-0.5 0-2.1-0.5-3.7-1.1l-2.8-1.1 3.7-1.5c2.7-1.1 4.1-2.4 5-4.9 0.6-1.9 1.4-3.4 1.6-3.4zm-0.5 8c-1.5 0-1.8 2.6-0.4 3.4 1.1 0.7 3.3-1.8 2.4-2.7-0.3-0.4-1.2-0.7-2-0.7z"/>
	</g>
</svg>